# xmcd CD database file
#
# Track frame offsets:
#	150
#	12966
#	33850
#	46249
#	57460
#	69576
#	84476
#	102418
#	120188
#	133046
#	143699
#	159428
#	173387
#	187680
#	199207
#
# Disc length: 2764 seconds
#
# Revision: 3
# Processed by: cddbd v1.5.2PL0 Copyright (c) Steve Scherf et al.
# Submitted via: CDex 1.91
#
DISCID=b90aca0f
DTITLE=Various Artist - Jazz [CD3) Les grands duos
DYEAR=2013
DGENRE=Jazz
TTITLE0=Ray Charles and Quincy Jones - Let the good time roll
TTITLE1=Ella Fitzgerald and Louis Armstrong - They can't take that away from me
TTITLE2=Rook Benton and Dinah Washington - Baby you got what it takes
TTITLE3=Bing Crosby and Louis Armstrong - Gone fishin'
TTITLE4=Frank Sinatra and Dinah Shore - Tea for two
TTITLE5=Ray Charles and Betty Carter - Take two to tango
TTITLE6=Sammy Davis jr and Carmen Mc Rae -  Cheek to cheek
TTITLE7=Louis Armstrong and Oscar Peterson - Makin' whoopee
TTITLE8=The Mills Brothers and Bing Crosby - Dinah
TTITLE9=The Andew Sisters and Al Jolson - Way down in New Orleans
TTITLE10=Frank Sinatra and Louis Armstrong - Birth of the blues
TTITLE11=Louis Armstrong and Louis Jordan - You Rascal you
TTITLE12=Ella Fitzgerald and The Ink Spots - Into each life some rain must fall
TTITLE13=Billie Holiday and Louis Armstrong - Necessary evil
TTITLE14=Nat King Cole and Frank Sinatra - Exactly like you
EXTD=YEAR: 2013
EXTT0=
EXTT1=
EXTT2=
EXTT3=
EXTT4=
EXTT5=
EXTT6=
EXTT7=
EXTT8=
EXTT9=
EXTT10=
EXTT11=
EXTT12=
EXTT13=
EXTT14=
PLAYORDER=
